<svg width="76" height="76" viewBox="0 0 76 76" fill="none" xmlns="http://www.w3.org/2000/svg">
<g id="Data Analysis">
<g id="Graph">
<path id="Stroke 1" fill-rule="evenodd" clip-rule="evenodd" d="M54.7135 43.9824C56.8501 43.9824 58.6435 45.7457 58.3168 47.8557C56.4001 60.2691 45.7735 69.4857 32.9568 69.4857C18.7768 69.4857 7.28345 57.9924 7.28345 43.8157C7.28345 32.1357 16.1568 21.2557 26.1468 18.7957C28.2934 18.2657 30.4934 19.7757 30.4934 21.9857C30.4934 36.9591 30.9968 40.8324 33.8401 42.9391C36.6834 45.0457 40.0268 43.9824 54.7135 43.9824Z" stroke="white" stroke-width="5" stroke-linecap="round" stroke-linejoin="round"/>
<path id="Stroke 3" fill-rule="evenodd" clip-rule="evenodd" d="M68.6933 31.5134C68.8633 21.8934 57.0466 6.38675 42.6466 6.65342C41.5266 6.67342 40.6299 7.60675 40.5799 8.72342C40.2166 16.6334 40.7066 26.8834 40.9799 31.5301C41.0633 32.9767 42.1999 34.1134 43.6433 34.1967C48.4199 34.4701 59.0433 34.8434 66.8399 33.6634C67.8999 33.5034 68.6766 32.5834 68.6933 31.5134Z" stroke="white" stroke-width="5" stroke-linecap="round" stroke-linejoin="round"/>
</g>
</g>
</svg>
