<?xml version="1.0" standalone="no"?><svg xmlns="http://www.w3.org/2000/svg" viewBox="0 0 1440 320"><path fill="#0099ff" fill-opacity="1" d="M0,32L12,48C24,64,48,96,72,112C96,128,120,128,144,128C168,128,192,128,216,149.3C240,171,264,213,288,192C312,171,336,85,360,69.3C384,53,408,107,432,117.3C456,128,480,96,504,74.7C528,53,552,43,576,53.3C600,64,624,96,648,128C672,160,696,192,720,208C744,224,768,224,792,229.3C816,235,840,245,864,224C888,203,912,149,936,144C960,139,984,181,1008,192C1032,203,1056,181,1080,170.7C1104,160,1128,160,1152,138.7C1176,117,1200,75,1224,80C1248,85,1272,139,1296,133.3C1320,128,1344,64,1368,48C1392,32,1416,64,1428,80L1440,96L1440,320L1428,320C1416,320,1392,320,1368,320C1344,320,1320,320,1296,320C1272,320,1248,320,1224,320C1200,320,1176,320,1152,320C1128,320,1104,320,1080,320C1056,320,1032,320,1008,320C984,320,960,320,936,320C912,320,888,320,864,320C840,320,816,320,792,320C768,320,744,320,720,320C696,320,672,320,648,320C624,320,600,320,576,320C552,320,528,320,504,320C480,320,456,320,432,320C408,320,384,320,360,320C336,320,312,320,288,320C264,320,240,320,216,320C192,320,168,320,144,320C120,320,96,320,72,320C48,320,24,320,12,320L0,320Z"></path></svg>